<svg id="Layer_1" data-name="Layer 1" xmlns="http://www.w3.org/2000/svg" viewBox="0 0 911.3 897.7"><defs><style>.cls-1,.cls-2{fill:none;stroke:#fff;stroke-miterlimit:10;}.cls-1{stroke-width:96px;}.cls-2{stroke-width:80px;}.cls-3{fill:#fff;}</style></defs><title>Darth Maul 2</title><path class="cls-1" d="M279.1,157.5a98.71,98.71,0,0,1,83.3-46.1H821.8c54.1,0,98.4,44.3,98.4,98.4V669.2a98.46,98.46,0,0,1-43.4,81.5" transform="translate(-56.9 -63.4)"/><path class="cls-1" d="M662.7,256.9H203.3c-54.1,0-98.4,44.3-98.4,98.4V814.7c0,54.1,44.3,98.4,98.4,98.4H662.7c54.1,0,98.4-44.3,98.4-98.4V355.3C761.1,301.2,716.8,256.9,662.7,256.9Z" transform="translate(-56.9 -63.4)"/><line class="cls-2" x1="381.83" y1="515.79" x2="590.91" y2="305.04"/><path class="cls-3" d="M675.9,396.63a243.83,243.83,0,0,1,26.38,33.56A223,223,0,0,1,722,467.81l2,4.89c.64,1.64,1.19,3.32,1.79,5l1.76,5,.88,2.49.75,2.53c1,3.38,2,6.74,3,10.12L734.58,508a263.86,263.86,0,0,1,5.48,41.47l.33,10.42c0,3.47-.1,6.94-.15,10.4l0,2.6c0,.87-.1,1.73-.15,2.59l-.33,5.18-.34,5.17-.57,5.15-.58,5.14-.29,2.57-.4,2.56-1.64,10.2c-1.39,6.74-2.69,13.5-4.53,20.12a279.13,279.13,0,0,1-13.11,38.89c-.66,1.57-1.26,3.17-2,4.73l-2.14,4.65L712,684.52l-1.08,2.32-1.17,2.27-4.69,9.07c-1.65,3-3.38,5.91-5.06,8.86a299.19,299.19,0,0,1-22.89,33.61c-1,1.33-2,2.69-3.11,4l-3.27,3.88-3.27,3.88c-1.1,1.29-2.15,2.6-3.32,3.82l-6.87,7.44-1.72,1.85-1.8,1.78-3.59,3.56c-4.69,4.84-9.83,9.22-14.8,13.75-.63.56-1.24,1.14-1.88,1.68l-2,1.6-3.91,3.19-3.91,3.18-2,1.59c-.66.51-1.35,1-2,1.5-5.43,4-10.75,8.06-16.43,11.65l-4.2,2.77c-1.4.92-2.78,1.87-4.24,2.7l-8.65,5.12c-2.84,1.77-5.86,3.24-8.81,4.82l-4.44,2.34c-1.48.78-2.95,1.58-4.48,2.25l-9.09,4.23-2.27,1.06c-.76.34-1.55.64-2.32,1l-4.64,1.88L545.49,839l-2.32.94-2.36.82-9.45,3.29c-1.56.58-3.17,1-4.77,1.5L521.8,847l-4.79,1.4c-1.59.5-3.23.81-4.84,1.22l-9.7,2.32c-3.26.65-6.54,1.23-9.8,1.84-1.63.29-3.26.63-4.9.89l-4.94.66-4.93.66c-1.65.2-3.28.49-4.94.58l-9.91.8-2.47.2-2.48.07-5,.14-5,.14-1.24,0-1.24,0-2.48-.06-9.9-.25,9.9-.3,2.47-.08,1.23,0,1.23-.1,4.93-.41,4.92-.41,2.46-.21,2.45-.33,9.78-1.34c1.63-.18,3.24-.56,4.86-.85l4.84-.92,4.84-.92c1.6-.34,3.19-.77,4.79-1.14,3.19-.79,6.38-1.53,9.55-2.35L511,845.4c1.56-.49,3.15-.88,4.69-1.46l4.63-1.64,4.63-1.64c1.54-.55,3.09-1.07,4.59-1.72l9.07-3.73,2.26-.93,2.22-1,4.43-2.09,4.43-2.09c.73-.35,1.48-.68,2.21-1.06l2.16-1.15,8.63-4.61c1.45-.74,2.84-1.59,4.24-2.43l4.19-2.51c2.78-1.69,5.62-3.28,8.29-5.15l8.11-5.43c1.37-.87,2.66-1.87,4-2.84l3.91-2.91c5.3-3.76,10.22-8,15.23-12.12.62-.52,1.26-1,1.87-1.55l1.8-1.64,3.59-3.28,3.59-3.27,1.79-1.63c.59-.55,1.15-1.14,1.72-1.71,4.53-4.63,9.23-9.08,13.47-14l3.25-3.6,1.62-1.8,1.55-1.86,6.16-7.47c1.05-1.22,2-2.54,3-3.82l2.91-3.86,2.91-3.86c.94-1.3,1.83-2.65,2.75-4a282.79,282.79,0,0,0,19.89-33c1.43-2.87,2.9-5.71,4.3-8.59l3.93-8.75,1-2.19.89-2.23,1.76-4.45,1.76-4.45c.58-1.48,1.06-3,1.59-4.51a258.36,258.36,0,0,0,10.16-36.74c1.36-6.2,2.2-12.48,3.14-18.73l1-9.42.24-2.35.13-2.36.27-4.72.26-4.71,0-4.72,0-4.71c0-.79,0-1.57,0-2.35l-.09-2.35c-.13-3.14-.22-6.27-.38-9.4l-.82-9.35A236.53,236.53,0,0,0,707,514.83l-2.65-8.9-3.09-8.73-.78-2.18-.89-2.13-1.78-4.26c-.6-1.42-1.15-2.85-1.8-4.25l-2-4.15a199.29,199.29,0,0,0-42.83-58.84Z" transform="translate(-56.9 -63.4)"/><path class="cls-3" d="M630.86,442.61a178.17,178.17,0,0,1,35,54.93l1.52,3.76c.48,1.26.9,2.55,1.35,3.82l1.32,3.83.65,1.91.56,1.94c.74,2.59,1.49,5.17,2.2,7.76l1.8,7.84a201.16,201.16,0,0,1,3.93,31.71l.19,7.95c0,2.65-.12,5.29-.18,7.93s-.31,5.27-.47,7.9l-.29,3.94-.46,3.92-.47,3.91-.24,2-.32,1.94-1.31,7.75c-1.1,5.12-2.13,10.24-3.57,15.26A211.85,211.85,0,0,1,661.83,652a221.05,221.05,0,0,1-14.08,27.57,226.37,226.37,0,0,1-17.54,25.29c-.8,1-1.57,2-2.38,3l-2.5,2.91c-1.68,1.92-3.29,3.91-5,5.78l-5.24,5.58-1.31,1.39-1.37,1.33-2.74,2.67c-3.57,3.63-7.49,6.9-11.27,10.29-.94.86-1.92,1.66-2.92,2.44l-3,2.38-3,2.38L588,746.2l-1.54,1.12c-4.12,3-8.16,6-12.47,8.68l-3.18,2.06c-1.06.69-2.11,1.39-3.22,2l-6.56,3.8c-2.15,1.31-4.44,2.41-6.67,3.58L551,769.18c-1.12.58-2.23,1.17-3.39,1.67-4.6,2.08-9.14,4.24-13.86,6l-3.51,1.38-1.75.69-1.79.61-7.13,2.41c-1.18.43-2.39.75-3.6,1.09l-3.62,1c-2.41.68-4.81,1.4-7.26,1.91l-7.31,1.68c-2.46.47-4.92.88-7.38,1.32-1.23.21-2.45.45-3.69.63l-3.72.46c-2.48.28-4.94.67-7.42.86a213.42,213.42,0,0,1-29.77.52,212.31,212.31,0,0,0,29.49-2.69c2.43-.37,4.84-.94,7.25-1.39l3.62-.72c1.2-.27,2.39-.6,3.58-.89,2.38-.61,4.77-1.19,7.13-1.83l7-2.17c2.36-.67,4.65-1.54,6.95-2.39l3.45-1.26c1.15-.42,2.3-.82,3.42-1.32l6.75-2.86,1.69-.71,1.65-.79,3.3-1.59c4.44-2,8.68-4.45,13-6.77,1.08-.56,2.11-1.21,3.15-1.85l3.11-1.91c2.06-1.28,4.17-2.49,6.15-3.91l6-4.11c1-.66,2-1.42,2.94-2.15l2.9-2.2c3.92-2.84,7.56-6.05,11.28-9.15l1.38-1.17,1.33-1.24,2.66-2.47,2.65-2.46c.89-.81,1.77-1.64,2.6-2.52,3.35-3.48,6.81-6.83,9.93-10.51l2.39-2.7,1.2-1.35,1.14-1.4,4.53-5.6c1.51-1.87,2.87-3.85,4.32-5.76l2.13-2.89c.69-1,1.34-2,2-3a210,210,0,0,0,14.54-24.65,202.44,202.44,0,0,0,11-26.2,191.08,191.08,0,0,0,7.25-27.28c1-4.59,1.53-9.25,2.18-13.87l.65-7,.16-1.74.08-1.75.16-3.49.16-3.48v-3.48c0-2.32.07-4.64-.1-6.95l-.35-6.92L653,562.1a173.82,173.82,0,0,0-5.37-26.89l-2-6.51-2.34-6.38-.59-1.59-.67-1.56-1.34-3.11c-.45-1-.87-2.08-1.35-3.1l-1.5-3a145.29,145.29,0,0,0-31.71-42.59Z" transform="translate(-56.9 -63.4)"/><path class="cls-3" d="M583.25,490.82A124.16,124.16,0,0,1,613,550.5a134,134,0,0,1,1.17,43.28c-.27,1.77-.44,3.55-.79,5.29l-1,5.25c-.8,3.46-1.56,6.92-2.59,10.31a143.18,143.18,0,0,1-7.23,19.8,148.88,148.88,0,0,1-9.81,18.43,152,152,0,0,1-12.09,16.8c-.55.66-1.08,1.34-1.63,2l-1.71,1.93c-1.15,1.27-2.25,2.59-3.44,3.81l-3.58,3.68c-1.17,1.24-2.47,2.36-3.69,3.55-2.44,2.38-5.09,4.53-7.66,6.75-1.28,1.12-2.67,2.1-4,3.16s-2.65,2.11-4.06,3.06c-2.79,1.93-5.53,3.92-8.44,5.65-1.44.88-2.84,1.82-4.32,2.64l-4.42,2.46c-1.45.85-3,1.55-4.49,2.3s-3,1.53-4.54,2.18c-3.09,1.33-6.14,2.71-9.3,3.83s-6.32,2.2-9.49,3.21c-1.58.51-3.22.88-4.82,1.32s-3.21.87-4.85,1.18l-4.87,1-4.91.79c-.82.12-1.63.27-2.45.37l-2.47.26c-1.65.16-3.28.38-4.93.48a140.88,140.88,0,0,1-19.7,0,139.79,139.79,0,0,0,19.42-2.14c1.6-.28,3.17-.68,4.76-1l2.37-.52c.79-.19,1.56-.42,2.34-.63l4.67-1.29,4.59-1.52c1.54-.47,3-1.07,4.53-1.66s3-1.12,4.47-1.78c2.93-1.31,5.88-2.57,8.7-4.08s5.63-3,8.39-4.6c1.39-.78,2.7-1.7,4-2.54s2.7-1.68,4-2.63l3.88-2.76c1.29-.91,2.5-1.95,3.75-2.92,2.52-1.91,4.86-4.05,7.24-6.12,1.21-1,2.29-2.17,3.44-3.25s2.3-2.15,3.36-3.32c2.14-2.32,4.35-4.54,6.33-7,1-1.21,2.07-2.35,3-3.61l2.87-3.7c1-1.23,1.81-2.54,2.73-3.8l1.35-1.9c.44-.64.84-1.31,1.27-2a135.62,135.62,0,0,0,9.08-16.16c10.63-22.18,14.93-47,11.72-70.18a109.74,109.74,0,0,0-3.79-16.93,94.12,94.12,0,0,0-6.52-15.72,90.17,90.17,0,0,0-20.38-26Z" transform="translate(-56.9 -63.4)"/><line class="cls-2" x1="367.57" y1="531.37" x2="158.49" y2="742.11"/><path class="cls-3" d="M187.29,777.32a243.84,243.84,0,0,1-26.38-33.56,223,223,0,0,1-19.69-37.61l-2-4.89c-.64-1.64-1.19-3.32-1.79-5l-1.76-5-.88-2.49-.75-2.53c-1-3.38-2-6.74-3-10.12l-2.44-10.24a263.85,263.85,0,0,1-5.48-41.47L122.8,614c0-3.47.1-6.94.15-10.4l0-2.6c0-.87.1-1.73.15-2.59l.33-5.18.34-5.17.57-5.15.58-5.14.29-2.57.4-2.56,1.64-10.2c1.39-6.74,2.69-13.5,4.53-20.12a279.13,279.13,0,0,1,13.11-38.89c.66-1.57,1.26-3.17,2-4.73l2.14-4.65,2.14-4.64,1.08-2.32,1.17-2.27,4.69-9.07c1.65-3,3.38-5.91,5.06-8.86a299.19,299.19,0,0,1,22.89-33.61c1-1.33,2-2.69,3.11-4l3.27-3.88,3.27-3.88c1.1-1.29,2.15-2.6,3.32-3.82l6.87-7.44,1.72-1.85,1.8-1.78,3.59-3.56c4.69-4.84,9.83-9.22,14.8-13.75.63-.56,1.24-1.14,1.88-1.68l2-1.6,3.91-3.19,3.91-3.18,2-1.59c.66-.51,1.35-1,2-1.5,5.43-4,10.75-8.06,16.43-11.65l4.2-2.77c1.4-.92,2.78-1.87,4.24-2.7l8.65-5.12c2.84-1.77,5.86-3.24,8.81-4.82l4.44-2.34c1.48-.78,2.95-1.58,4.48-2.25l9.09-4.23,2.27-1.06c.76-.34,1.55-.64,2.32-1l4.64-1.88,4.64-1.88L320,334l2.36-.82,9.45-3.29c1.56-.58,3.17-1,4.77-1.5l4.8-1.41,4.79-1.4c1.59-.5,3.23-.81,4.84-1.22l9.7-2.32c3.26-.65,6.54-1.23,9.8-1.84,1.63-.29,3.26-.63,4.9-.89l4.94-.66,4.93-.66c1.65-.2,3.28-.49,4.94-.58l9.91-.8,2.47-.2,2.48-.07,5-.14,5-.14,1.24,0,1.24,0,2.48.06,9.9.25-9.9.3-2.47.08-1.23,0-1.23.1-4.93.41-4.92.41-2.46.21-2.45.33-9.78,1.34c-1.63.18-3.24.56-4.86.85l-4.84.92-4.84.92c-1.6.34-3.19.77-4.79,1.14-3.19.79-6.38,1.53-9.55,2.35l-9.42,2.81c-1.56.49-3.15.88-4.69,1.46l-4.63,1.64-4.63,1.64c-1.54.55-3.09,1.07-4.59,1.72l-9.07,3.73-2.26.93-2.22,1-4.43,2.09-4.43,2.09c-.73.35-1.48.68-2.21,1.06l-2.16,1.15-8.63,4.61c-1.45.74-2.84,1.59-4.24,2.43l-4.19,2.51c-2.78,1.69-5.62,3.28-8.29,5.15l-8.11,5.43c-1.37.87-2.66,1.87-4,2.84L265.58,373c-5.3,3.76-10.22,8-15.23,12.12-.62.52-1.26,1-1.87,1.55l-1.8,1.64-3.59,3.28-3.59,3.27-1.79,1.63c-.59.55-1.15,1.14-1.72,1.71-4.53,4.63-9.23,9.08-13.47,14l-3.25,3.6-1.62,1.8-1.55,1.86-6.16,7.47c-1.05,1.22-2,2.54-3,3.82l-2.91,3.86-2.91,3.86c-.94,1.3-1.83,2.65-2.75,4a282.8,282.8,0,0,0-19.89,33c-1.43,2.87-2.9,5.71-4.3,8.59l-3.93,8.75-1,2.19-.89,2.23-1.76,4.45L164.89,506c-.58,1.48-1.06,3-1.59,4.51a258.37,258.37,0,0,0-10.16,36.74c-1.36,6.2-2.2,12.48-3.14,18.73l-1,9.42-.24,2.35-.13,2.36-.27,4.72-.26,4.71,0,4.72,0,4.71c0,.79,0,1.57,0,2.35l.09,2.35c.13,3.14.22,6.27.38,9.4l.82,9.35a236.54,236.54,0,0,0,6.92,36.66l2.65,8.9,3.09,8.73.78,2.18.89,2.13,1.78,4.26c.6,1.42,1.15,2.85,1.8,4.25l2,4.15A199.29,199.29,0,0,0,212,752.57Z" transform="translate(-56.9 -63.4)"/><path class="cls-3" d="M232.34,731.34a178.17,178.17,0,0,1-35-54.93l-1.52-3.76c-.48-1.26-.9-2.55-1.35-3.82L193.19,665l-.65-1.91-.56-1.94c-.74-2.59-1.49-5.17-2.2-7.76l-1.8-7.84A201.16,201.16,0,0,1,184,613.84l-.19-7.95c0-2.65.12-5.29.18-7.93s.31-5.27.47-7.9l.29-3.94.46-3.92.47-3.91.24-2,.32-1.94,1.31-7.75c1.1-5.12,2.13-10.24,3.57-15.26A211.85,211.85,0,0,1,201.37,522a221,221,0,0,1,14.08-27.57A226.37,226.37,0,0,1,233,469.1c.8-1,1.57-2,2.38-3l2.5-2.91c1.68-1.92,3.29-3.91,5-5.78l5.24-5.58,1.31-1.39,1.37-1.33,2.74-2.67c3.57-3.63,7.49-6.9,11.27-10.29.94-.86,1.92-1.66,2.92-2.44l3-2.38,3-2.38,1.48-1.19,1.54-1.12c4.12-3,8.16-6,12.47-8.68l3.18-2.06c1.06-.69,2.11-1.39,3.22-2l6.56-3.8c2.15-1.31,4.44-2.41,6.67-3.58l3.36-1.73c1.12-.58,2.23-1.17,3.39-1.67,4.6-2.08,9.14-4.24,13.86-6l3.51-1.38,1.75-.69,1.79-.61,7.13-2.41c1.18-.43,2.39-.75,3.6-1.09l3.62-1c2.41-.68,4.81-1.4,7.26-1.91l7.31-1.68c2.46-.47,4.92-.88,7.38-1.32,1.23-.21,2.45-.45,3.69-.63l3.72-.46c2.48-.28,4.94-.67,7.42-.86a213.42,213.42,0,0,1,29.77-.52,212.31,212.31,0,0,0-29.49,2.69c-2.43.37-4.84.94-7.25,1.39l-3.62.72c-1.2.27-2.39.6-3.58.89-2.38.61-4.77,1.19-7.13,1.83l-7,2.17c-2.36.67-4.65,1.54-6.95,2.39l-3.45,1.26c-1.15.42-2.3.82-3.42,1.32L338.7,400l-1.69.71-1.65.79-3.3,1.59c-4.44,2-8.68,4.45-13,6.77-1.08.56-2.11,1.21-3.15,1.85l-3.11,1.91c-2.06,1.28-4.17,2.49-6.15,3.91l-6,4.11c-1,.66-2,1.42-2.94,2.15l-2.9,2.2c-3.92,2.84-7.56,6.05-11.28,9.15l-1.38,1.17-1.33,1.24L278.22,440l-2.65,2.46c-.89.81-1.77,1.64-2.6,2.52-3.35,3.48-6.81,6.83-9.93,10.51l-2.39,2.7-1.2,1.35L258.3,461l-4.53,5.6c-1.51,1.87-2.87,3.85-4.32,5.76l-2.13,2.89c-.69,1-1.34,2-2,3a210,210,0,0,0-14.54,24.65,202.44,202.44,0,0,0-11,26.2,191.1,191.1,0,0,0-7.25,27.28c-1,4.59-1.53,9.25-2.18,13.87l-.65,7-.16,1.74-.08,1.75-.16,3.49-.16,3.48v3.48c0,2.32-.07,4.64.1,6.95l.35,6.92.67,6.88a173.83,173.83,0,0,0,5.37,26.89l2,6.51,2.33,6.38.59,1.59.67,1.56,1.34,3.11c.45,1,.87,2.08,1.35,3.1l1.5,3a145.29,145.29,0,0,0,31.71,42.59Z" transform="translate(-56.9 -63.4)"/><path class="cls-3" d="M279.95,683.14a124.16,124.16,0,0,1-29.77-59.68A134,134,0,0,1,249,580.18c.27-1.77.44-3.55.79-5.29l1-5.25c.8-3.46,1.56-6.92,2.59-10.31a143.18,143.18,0,0,1,7.23-19.8,148.89,148.89,0,0,1,9.81-18.43,152,152,0,0,1,12.09-16.8c.55-.66,1.08-1.34,1.63-2l1.71-1.93c1.15-1.27,2.25-2.59,3.44-3.81l3.58-3.68c1.17-1.24,2.47-2.36,3.69-3.55,2.44-2.38,5.09-4.53,7.66-6.75,1.27-1.12,2.67-2.1,4-3.16s2.65-2.11,4.06-3.06c2.79-1.93,5.53-3.92,8.44-5.65,1.44-.88,2.84-1.82,4.32-2.64l4.42-2.46c1.45-.85,3-1.55,4.49-2.3s3-1.53,4.54-2.18c3.09-1.33,6.14-2.71,9.3-3.83s6.32-2.2,9.49-3.21c1.58-.51,3.22-.88,4.82-1.32s3.21-.87,4.85-1.18l4.87-1,4.91-.79c.82-.12,1.63-.27,2.45-.37l2.47-.26c1.65-.16,3.28-.38,4.93-.48a140.89,140.89,0,0,1,19.7,0,139.78,139.78,0,0,0-19.42,2.14c-1.6.28-3.17.68-4.76,1l-2.37.52c-.79.19-1.56.42-2.34.63l-4.67,1.29-4.59,1.52c-1.54.47-3,1.07-4.53,1.66s-3,1.12-4.47,1.78c-2.93,1.31-5.88,2.57-8.7,4.08s-5.63,3-8.39,4.6c-1.39.78-2.7,1.7-4,2.54s-2.7,1.68-4,2.63l-3.88,2.76c-1.29.91-2.5,1.95-3.75,2.92-2.52,1.91-4.86,4.05-7.24,6.12-1.21,1-2.29,2.17-3.44,3.25s-2.3,2.15-3.36,3.32c-2.14,2.32-4.35,4.54-6.33,7-1,1.21-2.07,2.35-3,3.61l-2.87,3.7c-1,1.23-1.81,2.54-2.73,3.8l-1.35,1.9c-.44.64-.84,1.31-1.27,2a135.61,135.61,0,0,0-9.08,16.16c-10.63,22.18-14.93,47-11.72,70.18a109.74,109.74,0,0,0,3.79,16.93,94.12,94.12,0,0,0,6.52,15.72,90.17,90.17,0,0,0,20.38,26Z" transform="translate(-56.9 -63.4)"/></svg>