<svg id="Layer_1" data-name="Layer 1" xmlns="http://www.w3.org/2000/svg" viewBox="0 0 911.3 897.7"><defs><style>.cls-1,.cls-2{fill:none;stroke:#fff;stroke-miterlimit:10;}.cls-1{stroke-width:80px;}.cls-2{stroke-width:96px;}.cls-3{fill:#fff;}</style></defs><title>DarthMaul</title><line class="cls-1" x1="381.83" y1="515.79" x2="590.91" y2="305.04"/><line class="cls-1" x1="367.57" y1="531.37" x2="158.49" y2="742.11"/><path class="cls-2" d="M279.1,157.5a98.71,98.71,0,0,1,83.3-46.1H821.8c54.1,0,98.4,44.3,98.4,98.4V669.2a98.46,98.46,0,0,1-43.4,81.5" transform="translate(-56.9 -63.4)"/><path class="cls-2" d="M662.7,256.9H203.3c-54.1,0-98.4,44.3-98.4,98.4V814.7c0,54.1,44.3,98.4,98.4,98.4H662.7c54.1,0,98.4-44.3,98.4-98.4V355.3C761.1,301.2,716.8,256.9,662.7,256.9Z" transform="translate(-56.9 -63.4)"/><path class="cls-3" d="M187.27,777.22a262.94,262.94,0,0,1-27.71-37.11A240.73,240.73,0,0,1,139.33,699l-2-5.31c-.65-1.78-1.2-3.6-1.79-5.39l-1.75-5.39-.87-2.69-.74-2.73c-1-3.64-2-7.27-2.88-10.91l-2.32-11a278.64,278.64,0,0,1-4.66-44.23l-.05-11c.11-3.67.3-7.32.45-11l.13-2.74c.05-.91.16-1.82.23-2.73l.5-5.45.51-5.43.74-5.4.76-5.39.38-2.69.49-2.67,2-10.65c1.65-7,3.21-14,5.32-20.91a290.44,290.44,0,0,1,14.79-40.12c.73-1.62,1.4-3.26,2.19-4.85l2.36-4.76,2.36-4.75,1.19-2.37,1.28-2.32,5.13-9.25c1.8-3,3.67-6,5.5-9a308.08,308.08,0,0,1,24.61-34c1.11-1.34,2.19-2.71,3.32-4l3.48-3.89,3.48-3.88c1.16-1.29,2.29-2.61,3.53-3.83l7.27-7.43,1.82-1.85,1.9-1.77,3.79-3.54c4.95-4.81,10.34-9.15,15.56-13.62.66-.55,1.3-1.12,2-1.65l2-1.57,4.09-3.14,4.09-3.13,2-1.56c.69-.5,1.41-1,2.11-1.47,5.67-3.89,11.21-7.9,17.12-11.38l4.36-2.7c1.45-.89,2.89-1.82,4.4-2.62l9-5c2.94-1.71,6.06-3.12,9.11-4.64l4.58-2.24c1.53-.75,3-1.51,4.62-2.15l9.36-4,2.34-1c.78-.32,1.59-.6,2.38-.9l4.77-1.77,4.76-1.76,2.38-.87,2.42-.76,9.66-3c1.6-.54,3.24-.94,4.87-1.37l4.89-1.27,4.88-1.27c1.62-.46,3.29-.72,4.93-1.08l9.86-2c3.31-.56,6.63-1,9.94-1.56,1.66-.24,3.3-.53,5-.74l5-.51,5-.51c1.66-.15,3.31-.39,5-.43l10-.5,2.49-.12h7.48l5,0h1.24l1.24.07,2.48.14,9.91.56-9.89.61-2.47.15-1.23.08-1.23.14-4.91.57-4.9.57-2.45.28-2.43.41-9.7,1.64c-1.62.23-3.21.66-4.81,1l-4.79,1.07-4.78,1.07c-1.58.39-3.15.86-4.73,1.29-3.14.88-6.29,1.73-9.41,2.64L367,316.72c-1.53.54-3.1,1-4.6,1.6l-4.54,1.78-4.53,1.77c-1.51.59-3,1.15-4.49,1.85l-8.85,4-2.21,1-2.16,1.1L331.32,332l-4.3,2.2c-.71.37-1.44.72-2.14,1.11l-2.09,1.21-8.36,4.82c-1.41.77-2.75,1.66-4.1,2.54l-4,2.61c-2.68,1.76-5.43,3.41-8,5.34l-7.8,5.6c-1.32.9-2.55,1.93-3.8,2.92l-3.75,3c-5.08,3.86-9.77,8.2-14.55,12.38-.59.53-1.2,1-1.78,1.58L264.9,379l-3.41,3.33-3.41,3.32-1.7,1.66c-.56.56-1.09,1.16-1.63,1.73-4.29,4.68-8.73,9.18-12.7,14.1L239,406.73l-1.53,1.8L236,410.41l-5.76,7.48c-1,1.22-1.85,2.54-2.76,3.82l-2.7,3.86-2.7,3.85c-.87,1.3-1.69,2.64-2.54,4A272.89,272.89,0,0,0,201.39,466c-1.29,2.82-2.61,5.61-3.87,8.43L194,483l-.87,2.14-.78,2.17-1.55,4.35L189.28,496c-.51,1.44-.91,2.93-1.37,4.39a245.89,245.89,0,0,0-8.48,35.51c-1.09,6-1.66,12-2.35,17.93l-.6,9-.15,2.24,0,2.24-.09,4.48-.09,4.47.13,4.46.12,4.45c0,.74,0,1.48.07,2.22l.17,2.21c.24,2.95.43,5.89.69,8.82l1.1,8.74A219.85,219.85,0,0,0,186.12,641l2.76,8.14,3.17,7.94.79,2,.9,1.93,1.79,3.85c.61,1.28,1.16,2.58,1.8,3.83l2,3.73a180.07,180.07,0,0,0,41,51.79Z" transform="translate(-56.9 -63.4)"/><path class="cls-3" d="M246.31,718.24a196.57,196.57,0,0,1-36.82-62L208,652.08c-.49-1.4-.9-2.83-1.34-4.24l-1.3-4.24-.65-2.12-.55-2.14c-.72-2.86-1.45-5.7-2.12-8.56l-1.68-8.61a215.74,215.74,0,0,1-3.11-34.46l.09-8.55c.12-2.84.32-5.67.48-8.5s.52-5.63.8-8.44L199,558l.64-4.17.65-4.15.33-2.07.41-2.06,1.69-8.2c1.36-5.4,2.65-10.79,4.36-16.06A223,223,0,0,1,219,490.66a231,231,0,0,1,15.82-28.35,235.11,235.11,0,0,1,19.26-25.66c.87-1,1.71-2,2.59-3l2.71-2.93c1.82-1.93,3.56-3.92,5.45-5.79l5.64-5.57,1.41-1.38,1.47-1.33,2.93-2.65c3.83-3.6,8-6.83,12-10.16,1-.84,2-1.63,3.11-2.4l3.16-2.33,3.15-2.32,1.57-1.16,1.63-1.09c4.36-2.88,8.63-5.84,13.16-8.41l3.35-2c1.12-.66,2.22-1.34,3.38-1.93l6.87-3.63c2.26-1.25,4.64-2.28,7-3.39l3.5-1.63c1.17-.54,2.32-1.1,3.53-1.56,4.78-1.94,9.49-4,14.38-5.55l3.62-1.27,1.81-.63,1.84-.54,7.35-2.16c1.21-.38,2.46-.66,3.7-1l3.71-.89c2.47-.6,4.93-1.22,7.44-1.64l7.47-1.4c2.51-.37,5-.69,7.52-1,1.25-.16,2.5-.35,3.75-.49l3.77-.31c2.51-.18,5-.47,7.52-.56a213.39,213.39,0,0,1,29.93.72,211,211,0,0,0-29.33,3.93c-2.4.47-4.78,1.14-7.16,1.69l-3.56.87c-1.18.32-2.35.69-3.52,1-2.34.71-4.68,1.39-7,2.11l-6.87,2.45c-2.3.76-4.53,1.73-6.77,2.66l-3.35,1.39c-1.12.46-2.24.91-3.32,1.45L368.09,376l-1.63.77-1.59.85-3.18,1.71c-4.28,2.18-8.34,4.76-12.43,7.22-1,.59-2,1.28-3,1.95l-3,2c-2,1.35-4,2.61-5.85,4.09l-5.7,4.28c-1,.69-1.86,1.47-2.78,2.23l-2.73,2.28c-3.7,2.94-7.12,6.24-10.59,9.41l-1.29,1.2-1.24,1.26-2.48,2.52-2.47,2.51c-.83.83-1.65,1.67-2.41,2.56-3.1,3.54-6.31,6.93-9.17,10.64l-2.2,2.72-1.1,1.36-1,1.41-4.13,5.62c-1.37,1.87-2.6,3.84-3.9,5.75l-1.93,2.88c-.62,1-1.2,2-1.8,3a199.87,199.87,0,0,0-12.82,24.28,191,191,0,0,0-9.29,25.42,178.39,178.39,0,0,0-5.57,26.05c-.69,4.35-1,8.74-1.39,13.08l-.28,6.52-.07,1.62v1.63l0,3.24,0,3.23.18,3.22c.14,2.14.15,4.28.42,6.41l.66,6.35,1,6.27a156.7,156.7,0,0,0,6.19,24.14l2.13,5.75L264,619l.6,1.39.68,1.35,1.35,2.7c.45.89.87,1.8,1.35,2.68l1.49,2.6a125.89,125.89,0,0,0,29.86,35.53Z" transform="translate(-56.9 -63.4)"/><path class="cls-3" d="M305.9,657.93a141.34,141.34,0,0,1-25.49-45.4A139.59,139.59,0,0,1,274.49,588a151.36,151.36,0,0,1-1.53-24.5,149.72,149.72,0,0,1,2.43-23.77c.38-1.93.67-3.87,1.15-5.77l1.35-5.69c1.06-3.75,2.08-7.48,3.38-11.1a154.05,154.05,0,0,1,8.92-21,158.57,158.57,0,0,1,11.55-19.21,160.51,160.51,0,0,1,13.81-17.17c.62-.67,1.22-1.35,1.84-2l1.92-1.94c1.29-1.28,2.53-2.6,3.86-3.82l4-3.66c1.3-1.24,2.73-2.34,4.09-3.51,2.7-2.35,5.61-4.46,8.42-6.62,1.4-1.09,2.92-2,4.37-3.07s2.89-2,4.42-3c3-1.85,6-3.75,9.12-5.38,1.56-.83,3.06-1.72,4.64-2.48l4.73-2.29c1.55-.79,3.19-1.43,4.79-2.12s3.18-1.39,4.82-2c3.27-1.19,6.49-2.43,9.82-3.38s6.63-1.88,9.94-2.72c1.65-.43,3.35-.7,5-1.06s3.33-.69,5-.91l5-.74,5.05-.5c.84-.07,1.67-.17,2.51-.23l2.53-.11c1.68-.06,3.35-.18,5-.18a140.54,140.54,0,0,1,19.86,1.27,138.14,138.14,0,0,0-19.26,3.38c-1.57.38-3.11.88-4.66,1.31l-2.31.67c-.77.24-1.52.52-2.28.78l-4.53,1.58-4.43,1.8c-1.48.56-2.92,1.26-4.35,1.93s-2.88,1.29-4.28,2c-2.79,1.48-5.59,2.9-8.25,4.57s-5.29,3.33-7.87,5c-1.3.85-2.51,1.84-3.76,2.74s-2.5,1.81-3.67,2.82l-3.56,2.93c-1.19,1-2.29,2.06-3.43,3.07-2.3,2-4.41,4.24-6.55,6.38-1.09,1.05-2.05,2.25-3.08,3.36s-2.05,2.21-3,3.41c-1.89,2.37-3.84,4.64-5.57,7.1-.87,1.22-1.81,2.38-2.61,3.64l-2.47,3.71c-.82,1.23-1.54,2.54-2.31,3.79L343,477.31c-.37.64-.7,1.3-1.06,1.94A125.14,125.14,0,0,0,334.57,495a118.45,118.45,0,0,0-5,16.28,109.24,109.24,0,0,0-2.6,16.41c-.28,2.72-.32,5.44-.42,8.12l.06,4c0,1.33.15,2.66.2,4a95.1,95.1,0,0,0,2.27,15.39,91.61,91.61,0,0,0,4.61,14.18,75.37,75.37,0,0,0,6.74,12.51,70.33,70.33,0,0,0,18.52,19Z" transform="translate(-56.9 -63.4)"/><path class="cls-3" d="M676.11,397a262.93,262.93,0,0,1,27.71,37.11A240.72,240.72,0,0,1,724,475.22l2,5.31c.65,1.78,1.2,3.6,1.79,5.39l1.75,5.39.87,2.69.74,2.73c1,3.64,2,7.27,2.88,10.91l2.32,11a278.64,278.64,0,0,1,4.66,44.23l.05,11c-.11,3.67-.3,7.32-.45,11l-.13,2.74c-.05.91-.16,1.82-.23,2.73l-.5,5.45-.51,5.43-.74,5.4-.76,5.39-.38,2.69-.49,2.67-2,10.65c-1.65,7-3.21,14-5.32,20.91a290.45,290.45,0,0,1-14.79,40.12c-.73,1.62-1.4,3.26-2.19,4.85l-2.36,4.76-2.36,4.75-1.19,2.37-1.28,2.32-5.13,9.25c-1.8,3-3.67,6-5.5,9a308.09,308.09,0,0,1-24.61,34c-1.11,1.34-2.19,2.71-3.32,4l-3.48,3.89-3.48,3.88c-1.16,1.29-2.29,2.61-3.53,3.83l-7.27,7.43-1.82,1.85-1.9,1.77-3.79,3.54c-5,4.81-10.34,9.15-15.56,13.62-.66.55-1.3,1.12-2,1.65l-2,1.57-4.09,3.14-4.09,3.13-2,1.56c-.69.5-1.41,1-2.11,1.47-5.67,3.89-11.21,7.9-17.12,11.38l-4.36,2.7c-1.45.89-2.89,1.82-4.4,2.62l-9,5c-2.94,1.71-6.06,3.12-9.11,4.64l-4.58,2.24c-1.53.75-3,1.51-4.62,2.15l-9.36,4-2.34,1c-.78.32-1.59.6-2.38.9l-4.77,1.77-4.76,1.76-2.38.87-2.42.76-9.66,3c-1.6.54-3.24.94-4.87,1.37l-4.89,1.27-4.88,1.27c-1.62.46-3.29.72-4.93,1.08l-9.86,2c-3.31.56-6.63,1-9.94,1.56-1.66.24-3.3.53-5,.74l-5,.51-5,.51c-1.66.15-3.31.39-5,.43l-10,.5-2.49.12h-7.48l-5,0H433l-1.24-.07-2.48-.14-9.91-.56,9.89-.61,2.47-.15,1.23-.08,1.23-.14,4.91-.57L444,870l2.45-.28,2.43-.41,9.7-1.64c1.62-.23,3.21-.66,4.81-1l4.79-1.07,4.78-1.07c1.58-.39,3.15-.86,4.73-1.29,3.14-.88,6.29-1.73,9.41-2.64l9.26-3.09c1.53-.54,3.1-1,4.6-1.6l4.54-1.78,4.53-1.77c1.51-.59,3-1.15,4.49-1.85l8.85-4,2.21-1,2.16-1.1,4.31-2.21,4.3-2.2c.71-.37,1.44-.72,2.14-1.11l2.09-1.21,8.36-4.82c1.41-.77,2.75-1.66,4.1-2.54l4-2.61c2.68-1.76,5.43-3.41,8-5.34l7.8-5.6c1.32-.9,2.55-1.93,3.8-2.92l3.75-3c5.08-3.86,9.77-8.2,14.55-12.38.59-.53,1.2-1,1.78-1.58l1.71-1.67,3.41-3.33,3.41-3.32,1.7-1.66c.56-.56,1.09-1.16,1.63-1.73,4.29-4.68,8.73-9.18,12.7-14.1l3.05-3.62,1.53-1.8,1.45-1.87,5.76-7.48c1-1.22,1.85-2.54,2.76-3.82l2.7-3.86,2.7-3.85c.87-1.3,1.69-2.64,2.54-4A272.88,272.88,0,0,0,662,708.25c1.29-2.82,2.61-5.61,3.87-8.43l3.49-8.57.87-2.14.78-2.17,1.55-4.35,1.55-4.33c.51-1.44.91-2.93,1.37-4.39a245.9,245.9,0,0,0,8.48-35.51c1.09-6,1.66-12,2.35-17.93l.6-9,.15-2.24,0-2.24.09-4.48.09-4.47-.13-4.46-.12-4.45c0-.74,0-1.48-.07-2.22l-.17-2.21c-.24-2.95-.43-5.89-.69-8.82l-1.1-8.74a219.85,219.85,0,0,0-7.74-33.91l-2.76-8.14-3.17-7.94-.79-2-.9-1.93-1.79-3.85c-.61-1.28-1.16-2.58-1.8-3.83l-2-3.73a180.07,180.07,0,0,0-41-51.79Z" transform="translate(-56.9 -63.4)"/><path class="cls-3" d="M617.06,456a196.57,196.57,0,0,1,36.82,62l1.53,4.18c.49,1.4.9,2.83,1.34,4.24l1.3,4.24.65,2.12.55,2.14c.72,2.86,1.45,5.7,2.12,8.56l1.68,8.61a215.74,215.74,0,0,1,3.11,34.46l-.09,8.55c-.12,2.84-.32,5.67-.48,8.5s-.52,5.63-.8,8.44l-.46,4.2-.64,4.17-.65,4.15-.33,2.07-.41,2.06-1.69,8.2c-1.36,5.4-2.65,10.79-4.36,16.06a223,223,0,0,1-11.88,30.67,231,231,0,0,1-15.82,28.35,235.11,235.11,0,0,1-19.26,25.66c-.87,1-1.71,2-2.59,3L604,743.51c-1.82,1.93-3.56,3.92-5.45,5.79l-5.64,5.57-1.41,1.38L590,757.57l-2.93,2.65c-3.83,3.6-8,6.83-12,10.16-1,.84-2,1.63-3.11,2.4l-3.16,2.33-3.15,2.32-1.57,1.16-1.63,1.09c-4.36,2.88-8.63,5.84-13.16,8.41l-3.35,2c-1.12.66-2.22,1.34-3.38,1.93l-6.87,3.63c-2.26,1.25-4.64,2.28-7,3.39l-3.5,1.63c-1.17.54-2.32,1.1-3.53,1.56-4.78,1.94-9.49,4-14.38,5.55L503.71,809l-1.81.63-1.84.54-7.35,2.16c-1.21.38-2.46.66-3.7,1l-3.71.89c-2.47.6-4.93,1.22-7.44,1.64l-7.47,1.4c-2.51.37-5,.69-7.52,1-1.25.16-2.5.35-3.75.49l-3.77.31c-2.51.18-5,.47-7.52.56a213.4,213.4,0,0,1-29.93-.72A211,211,0,0,0,447.21,815c2.4-.47,4.78-1.14,7.16-1.69l3.56-.87c1.18-.32,2.35-.69,3.52-1,2.34-.71,4.68-1.39,7-2.11l6.87-2.45c2.3-.76,4.53-1.73,6.77-2.66l3.35-1.39c1.12-.46,2.24-.91,3.32-1.45l6.54-3.11,1.63-.77,1.59-.85,3.18-1.71c4.28-2.18,8.34-4.76,12.43-7.22,1-.59,2-1.28,3-1.95l3-2c2-1.35,4-2.61,5.85-4.09l5.7-4.28c1-.69,1.86-1.47,2.78-2.23l2.73-2.28c3.7-2.94,7.12-6.24,10.59-9.41l1.29-1.2,1.24-1.26,2.48-2.52,2.47-2.51c.83-.83,1.65-1.67,2.41-2.56,3.1-3.54,6.31-6.93,9.17-10.64L569,738l1.1-1.36,1-1.41,4.13-5.62c1.37-1.87,2.6-3.84,3.9-5.75l1.93-2.88c.62-1,1.2-2,1.8-3a199.86,199.86,0,0,0,12.82-24.28A191,191,0,0,0,605,668.35a178.39,178.39,0,0,0,5.57-26.05c.69-4.35,1-8.74,1.39-13.08l.28-6.52.07-1.62v-1.63l0-3.24,0-3.23-.18-3.22c-.14-2.14-.15-4.28-.42-6.41L611,597l-1-6.27a156.7,156.7,0,0,0-6.19-24.14l-2.13-5.75-2.41-5.59-.6-1.39-.68-1.35-1.35-2.7c-.45-.89-.87-1.8-1.35-2.68l-1.49-2.6A125.89,125.89,0,0,0,564,509Z" transform="translate(-56.9 -63.4)"/><path class="cls-3" d="M557.47,516.28A141.34,141.34,0,0,1,583,561.68a139.59,139.59,0,0,1,5.92,24.54,151.36,151.36,0,0,1,1.53,24.5A149.71,149.71,0,0,1,588,634.49c-.38,1.93-.67,3.87-1.15,5.77L585.48,646c-1.06,3.75-2.08,7.48-3.38,11.1a154.06,154.06,0,0,1-8.92,21,158.56,158.56,0,0,1-11.55,19.21,160.51,160.51,0,0,1-13.81,17.17c-.62.67-1.22,1.35-1.84,2l-1.92,1.94c-1.29,1.28-2.53,2.6-3.86,3.82l-4,3.66c-1.3,1.24-2.73,2.34-4.09,3.51-2.7,2.35-5.61,4.46-8.42,6.62-1.4,1.09-2.92,2-4.37,3.07s-2.89,2-4.42,3c-3,1.85-6,3.75-9.12,5.38-1.56.83-3.06,1.72-4.64,2.48l-4.73,2.29c-1.55.79-3.19,1.43-4.79,2.12s-3.18,1.39-4.82,2c-3.27,1.19-6.49,2.43-9.82,3.38s-6.63,1.88-9.94,2.72c-1.65.43-3.35.7-5,1.06s-3.33.69-5,.91l-5,.74-5.05.5c-.84.07-1.67.17-2.51.23l-2.53.11c-1.68.06-3.35.18-5,.18A140.53,140.53,0,0,1,417,764.86a138.14,138.14,0,0,0,19.26-3.38c1.57-.38,3.11-.88,4.66-1.31l2.31-.67c.77-.24,1.52-.52,2.28-.78l4.53-1.58,4.43-1.8c1.48-.56,2.92-1.26,4.35-1.93s2.88-1.29,4.28-2c2.79-1.48,5.59-2.9,8.25-4.57s5.29-3.33,7.87-5c1.3-.85,2.51-1.84,3.76-2.74s2.5-1.81,3.67-2.82l3.56-2.93c1.19-1,2.29-2.06,3.43-3.07,2.3-2,4.41-4.24,6.55-6.38,1.09-1.05,2.05-2.25,3.08-3.36s2.05-2.21,3-3.41c1.89-2.37,3.84-4.64,5.57-7.1.87-1.22,1.81-2.38,2.61-3.64l2.47-3.71c.82-1.23,1.54-2.54,2.31-3.79l1.14-1.89c.37-.64.7-1.3,1.06-1.94a125.14,125.14,0,0,0,7.37-15.79,118.45,118.45,0,0,0,5-16.28,109.24,109.24,0,0,0,2.6-16.41c.28-2.72.32-5.44.42-8.12l-.06-4c0-1.33-.15-2.66-.2-4A95.1,95.1,0,0,0,534.32,615a91.6,91.6,0,0,0-4.61-14.18A75.37,75.37,0,0,0,523,588.27a70.33,70.33,0,0,0-18.52-19Z" transform="translate(-56.9 -63.4)"/></svg>